<?xml version="1.0" encoding="iso-8859-1"?>
<!-- Uploaded to: SVG Repo, www.svgrepo.com, Generator: SVG Repo Mixer Tools -->
<!DOCTYPE svg PUBLIC "-//W3C//DTD SVG 1.1//EN" "http://www.w3.org/Graphics/SVG/1.1/DTD/svg11.dtd">
<svg fill="currentColor" height="80px" width="80px" version="1.1" id="Capa_1" xmlns="http://www.w3.org/2000/svg" xmlns:xlink="http://www.w3.org/1999/xlink" 
	 viewBox="0 0 472.609 472.609" xml:space="preserve">
<g>
	<g>
		<path d="M143.279,122.125L96.516,350.484h329.326l46.768-228.359H143.279z M429.4,179.689l-146.154,75.225L166.77,178.973
			c-6.494-4.232-8.309-12.913-4.084-19.395c4.219-6.49,12.904-8.318,19.396-4.087l102.824,67.041l131.674-67.77
			c6.889-3.538,15.336-0.831,18.871,6.05C439.004,167.7,436.293,176.146,429.4,179.689z"/>
		<polygon points="127.914,122.125 6.981,122.125 0,142.578 123.428,142.578 		"/>
		<polygon points="119.279,161.828 60.492,161.828 53.498,182.28 114.789,182.28 		"/>
	</g>
	<g>
		<polygon points="109.273,202.971 19.41,202.971 12.416,223.426 104.787,223.426 		"/>
	</g>
</g>
</svg>